<svg width="1728" height="929" viewBox="0 0 1728 929" fill="none" xmlns="http://www.w3.org/2000/svg">
  <rect x="551" y="240" width="625" height="441" rx="31" stroke="black" stroke-width="2"/>
  <rect x="572" y="272" width="469" height="381" rx="58" stroke="black" stroke-width="2"/>
  <rect x="1061" y="272" width="94" height="381" rx="12" stroke="black" stroke-width="2"/>
  <circle cx="1108" cy="554" r="37" stroke="black" stroke-width="2"/>
  <circle cx="1108" cy="554" r="29" stroke="black" stroke-width="2"/>
  <rect x="1117.78" y="527.245" width="7.62208" height="56.7978" transform="rotate(28.1344 1117.78 527.245)" stroke="black" stroke-width="2"/>
  <path d="M1079.6 399.461H1134.24" stroke="black" stroke-width="2" stroke-linecap="round"/>
  <path d="M1079.6 474H1134.24" stroke="black" stroke-width="2" stroke-linecap="round"/>
  <path d="M1079.6 454H1134.24" stroke="black" stroke-width="2" stroke-linecap="round"/>
  <path d="M1079.6 434H1134.24" stroke="black" stroke-width="2" stroke-linecap="round"/>
  <path d="M1079.6 416H1134.24" stroke="black" stroke-width="2" stroke-linecap="round"/>
  <path d="M1079.6 325H1134.24" stroke="black" stroke-width="2" stroke-linecap="round"/>
  <path d="M1079.6 341H1134.24" stroke="black" stroke-width="2" stroke-linecap="round"/>
  <path d="M1079.6 356H1134.24" stroke="black" stroke-width="2" stroke-linecap="round"/>
  <path d="M1079.6 370H1134.24" stroke="black" stroke-width="2" stroke-linecap="round"/>
  <path d="M1079.6 384H1134.24" stroke="black" stroke-width="2" stroke-linecap="round"/>
  <circle cx="1085" cy="615" r="19" stroke="black" stroke-width="2"/>
  <circle cx="1130" cy="615" r="19" stroke="black" stroke-width="2"/>
  <circle cx="1129.5" cy="614.5" r="13.5" stroke="black" stroke-width="2"/>
  <circle cx="1084.5" cy="614.5" r="13.5" stroke="black" stroke-width="2"/>
  <rect x="794" y="211" width="119" height="27" stroke="black" stroke-width="2"/>
  <path d="M813.5 210.5L657.5 50.5" stroke="black" stroke-width="2"/>
  <path d="M887.884 210.48L1008.5 5.5" stroke="black" stroke-width="2"/>
  <circle cx="1009.5" cy="3.5" r="2.5" stroke="black" stroke-width="2"/>
  <circle cx="655.5" cy="48.5" r="2.5" stroke="black" stroke-width="2"/>
  <path d="M603.954 704L584.704 682H1142.07L1126.48 704H603.954Z" stroke="black" stroke-width="2"/>
  <path d="M0 927.5H610.5L639 704" stroke="black" stroke-width="2"/>
  <path d="M1728 927H1118L1079.5 704.5" stroke="black" stroke-width="2"/>
</svg>
