<svg width="379" height="156" viewBox="0 0 379 156" fill="none" xmlns="http://www.w3.org/2000/svg">
<path d="M65.0001 21C57.0001 21 0.500122 41.5 0.500122 41.5V44.5C0.500122 44.5 59.0001 25.5 65.0001 25.5C71.0001 25.5 85.0001 28.5 85.0001 28.5C85.0001 28.5 69.0001 120 144.5 120C203.5 120 209.5 56.5 209.5 56.5C224 50.5 247.5 57.0597 257 66C250.5 77 247 151 310.5 154.5C374 158 378 82.5 378 82.5C378 82.5 379 48.4999 324.5 38.5C270 28.5 258 63.5 258 63.5C242 51 221.5 49.5 209.5 54C209.5 54 212.5 17.9999 160 4.49997C107.5 -9 88.0001 22.5 88.0001 22.5C88.0001 22.5 73.0001 21 65.0001 21Z" stroke="black"/>
</svg>
